<svg xmlns="http://www.w3.org/2000/svg" xmlns:xlink="http://www.w3.org/1999/xlink" width="352" height="184" viewBox="0 0 352 184">
  <defs>
    <filter id="background" x="0" y="0" width="352" height="184" filterUnits="userSpaceOnUse">
      <feOffset dy="4" input="SourceAlpha"/>
      <feGaussianBlur stdDeviation="2" result="blur"/>
      <feFlood flood-opacity="0.039"/>
      <feComposite operator="in" in2="blur"/>
      <feComposite in="SourceGraphic"/>
    </filter>
  </defs>
  <g id="card" transform="translate(6 2)">
    <g transform="matrix(1, 0, 0, 1, -6, -2)" filter="url(#background)">
      <path id="background-2" data-name="background" d="M14,0H326a14,14,0,0,1,14,14V158a14,14,0,0,1-14,14H14A14,14,0,0,1,0,158V14A14,14,0,0,1,14,0Z" transform="translate(6 2)" fill="#fff"/>
    </g>
    <path id="background-3" data-name="background" d="M14,0H326a14,14,0,0,1,14,14V158a14,14,0,0,1-14,14H14A14,14,0,0,1,0,158V14A14,14,0,0,1,14,0Z" fill="#fff"/>
    <path id="Vector_9" data-name="Vector 9" d="M0,87,17.237,54.146a14,14,0,0,1,24-1.324l3.024,4.484A14,14,0,0,0,68.7,55.092L83.748,20.708a14,14,0,0,1,23.565-3.367L111,21.75" transform="translate(199 23)" fill="none" stroke="#6418c3" stroke-linecap="round" stroke-width="6" stroke-dasharray="0 0"/>
    <g id="item" transform="translate(30 23)">
      <text id="New_Projects" data-name="New Projects" transform="translate(0 86)" fill="#202020" font-size="18" font-family="Cairo-SemiBold, Cairo" font-weight="600"><tspan x="0" y="0">New Projects</tspan></text>
      <text id="_0_5_than_last_month" data-name="+0,5% than last month" transform="translate(0 114)" fill="#38e25d" font-size="16" font-family="OpenSans-Bold, Open Sans" font-weight="700"><tspan x="0" y="0">+0,5%</tspan><tspan y="0" xml:space="preserve" fill="#a5a5a5" font-family="Helvetica" font-weight="400"> than last month</tspan></text>
      <text id="_892" data-name="892" transform="translate(0 50)" fill="#202020" font-size="38" font-family="Cairo-Bold, Cairo" font-weight="700"><tspan x="0" y="0">892</tspan></text>
    </g>
  </g>
</svg>
